<svg width="462.0424560546875px" height="155.36246643066406px" xmlns="http://www.w3.org/2000/svg" viewBox="18.97877197265626 -2.6812332153320284 462.0424560546875 155.36246643066406" style="background: rgba(181, 204, 241, 0.063);" preserveAspectRatio="xMidYMid"><defs><filter id="editing-extrusion" x="-100%" y="-100%" width="300%" height="300%"><feFlood result="color1" flood-color="#171d2c"></feFlood><feConvolveMatrix order="2,2" divisor="1" kernelMatrix="1 0 0 1" in="SourceAlpha" result="extrude"></feConvolveMatrix><feComposite in="color1" in2="extrude" result="comp-extrude" operator="in"></feComposite><feOffset dx="1" dy="1" in="comp-extrude" result="offset-extrude"></feOffset><feMerge><feMergeNode in="offset-extrude"></feMergeNode><feMergeNode in="SourceGraphic"></feMergeNode></feMerge></filter></defs><g filter="url(#editing-extrusion)"><g transform="translate(91.53063297271729, 123.02999877929688)"><path d="M29.70-15.36L29.70-15.36L29.70-15.36Q28.03-12.54 25.70-9.70L25.70-9.70L25.70-9.70Q23.36-6.85 20.42-4.19L20.42-4.19L20.42-4.19Q17.47-1.54 13.95 0.13L13.95 0.13L13.95 0.13Q10.43 1.79 7.10 1.79L7.10 1.79L7.10 1.79Q1.79 1.79 1.79-6.14L1.79-6.14L1.79-6.14Q1.79-16.19 7.65-27.20L7.65-27.20L7.65-27.20Q13.50-38.21 22.59-45.18L22.59-45.18L22.59-45.18Q23.17-45.63 24.16-46.24L24.16-46.24L24.16-46.24Q25.15-46.85 27.87-47.90L27.87-47.90L27.87-47.90Q30.59-48.96 32.83-48.96L32.83-48.96L32.83-48.96Q34.56-48.96 35.84-48.45L35.84-48.45L35.84-48.45Q35.97-48.38 36.16-48.38L36.16-48.38L36.16-48.38Q36.61-48.38 36.86-48.83L36.86-48.83L36.86-48.83Q38.21-49.92 41.15-49.92L41.15-49.92L41.66-49.92L41.66-49.92Q42.56-49.92 42.56-49.02L42.56-49.02L42.56-49.02Q42.56-47.62 40.48-44.54L40.48-44.54L40.48-44.54Q38.40-41.47 36.61-39.36L36.61-39.36L36.61-39.36Q34.82-37.25 33.41-35.71L33.41-35.71L33.41-35.71Q31.04-33.22 30.08-33.22L30.08-33.22L30.08-33.22Q29.63-33.22 29.63-33.86L29.63-33.86L29.63-33.86Q29.63-36.10 33.28-42.62L33.28-42.62L33.28-42.62Q33.34-42.75 33.92-43.65L33.92-43.65L33.92-43.65Q34.50-44.54 34.75-45.15L34.75-45.15L34.75-45.15Q35.01-45.76 35.01-46.27L35.01-46.27L35.01-46.27Q35.01-47.36 33.28-47.36L33.28-47.36L33.28-47.36Q31.87-47.36 30.18-46.46L30.18-46.46L30.18-46.46Q28.48-45.57 27.52-44.67L27.52-44.67L26.50-43.78L26.50-43.78Q19.71-37.50 14.24-27.23L14.24-27.23L14.24-27.23Q8.77-16.96 8.77-8.58L8.77-8.58L8.77-8.58Q8.77-2.50 12.61-2.50L12.61-2.50L12.61-2.50Q13.12-2.50 13.79-2.62L13.79-2.62L13.79-2.62Q14.46-2.75 16.10-3.49L16.10-3.49L16.10-3.49Q17.73-4.22 19.30-5.54L19.30-5.54L19.30-5.54Q20.86-6.85 22.94-9.57L22.94-9.57L22.94-9.57Q25.02-12.29 26.88-15.94L26.88-15.94L26.88-15.94Q27.39-16.96 28.22-18.85L28.22-18.85L28.22-18.85Q29.06-20.74 29.54-21.63L29.54-21.63L29.54-21.63Q30.02-22.53 30.34-22.53L30.34-22.53L30.34-22.53Q30.78-22.53 31.04-21.73L31.04-21.73L31.04-21.73Q31.30-20.93 31.30-20.35L31.30-20.35L31.30-20.35Q31.30-17.98 29.70-15.36ZM56-22.53L56-22.53L56-22.53Q56.58-22.40 56.58-22.14L56.58-22.14L56.58-22.14Q56.58-21.76 56.06-21.25L56.06-21.25L56.06-21.25Q55.36-20.54 53.98-19.39L53.98-19.39L53.98-19.39Q52.61-18.24 52.35-17.98L52.35-17.98L51.46-16.77L51.46-16.77Q50.11-12.99 47.33-8.93L47.33-8.93L47.33-8.93Q44.54-4.86 40.54-1.79L40.54-1.79L40.54-1.79Q36.54 1.28 32.90 1.28L32.90 1.28L32.90 1.28Q28.35 1.28 28.35-4.29L28.35-4.29L28.35-4.29Q28.35-9.22 31.55-14.94L31.55-14.94L31.55-14.94Q34.75-20.67 39.84-24.74L39.84-24.74L39.84-24.74Q44.93-28.80 49.86-28.80L49.86-28.80L49.86-28.80Q53.44-28.80 53.44-25.98L53.44-25.98L53.44-25.98Q53.44-24.45 51.90-21.82L51.90-21.82L51.90-21.82Q51.84-21.76 51.84-21.63L51.84-21.63L51.84-21.63Q51.84-21.50 51.97-21.50L51.97-21.50L51.97-21.50Q54.34-22.46 56-22.53ZM49.92-20.99L49.92-20.99L49.92-20.99Q50.43-23.23 50.43-24.45L50.43-24.45L50.43-24.45Q50.43-27.14 48.64-27.14L48.64-27.14L48.64-27.14Q46.14-27.14 42.43-22.53L42.43-22.53L42.43-22.53Q38.72-17.92 36.06-12.16L36.06-12.16L36.06-12.16Q33.41-6.40 33.41-3.07L33.41-3.07L33.41-3.07Q33.41-0.64 35.14-0.64L35.14-0.64L35.14-0.64Q37.82-0.64 41.57-6.02L41.57-6.02L41.57-6.02Q45.31-11.39 46.08-16.83L46.08-16.83L46.08-16.83Q46.02-16.96 46.02-17.22L46.02-17.22L46.02-17.22Q46.02-19.07 49.34-20.54L49.34-20.54L49.34-20.54Q49.86-20.74 49.92-20.99ZM86.40-9.66L86.40-9.66L86.40-9.66Q89.09-12.35 93.50-17.41L93.50-17.41L93.50-17.41Q93.70-17.60 93.82-17.60L93.82-17.60L93.82-17.60Q93.95-17.60 93.95-17.34L93.95-17.34L93.95-17.34Q93.95-16.13 92.99-14.98L92.99-14.98L92.99-14.98Q88.26-9.73 84.61-6.21L84.61-6.21L84.61-6.21Q77.06 0.83 74.69 0.83L74.69 0.83L74.69 0.83Q73.66 0.83 73.66-0.38L73.66-0.38L73.66-0.38Q73.66-1.60 74.98-4.42L74.98-4.42L74.98-4.42Q76.29-7.23 77.60-9.54L77.60-9.54L77.60-9.54Q78.91-11.84 80.93-15.17L80.93-15.17L80.93-15.17Q82.94-18.50 83.07-18.75L83.07-18.75L83.07-18.75Q84.22-20.61 84.22-21.12L84.22-21.12L84.22-21.12Q84.22-21.44 83.90-21.44L83.90-21.44L83.01-21.12L83.01-21.12Q80.06-19.01 75.97-14.56L75.97-14.56L75.97-14.56Q71.87-10.11 69.25-6.78L69.25-6.78L66.62-3.39L66.62-3.39Q63.68 0.83 60.86 0.83L60.86 0.83L60.86 0.83Q60.03 0.83 60.03 0.32L60.03 0.32L60.03 0.32Q60.03-0.26 61.25-2.72L61.25-2.72L61.25-2.72Q62.46-5.18 63.68-7.36L63.68-7.36L64.90-9.54L64.90-9.54Q65.34-10.43 67.10-13.41L67.10-13.41L67.10-13.41Q68.86-16.38 70.05-18.53L70.05-18.53L70.05-18.53Q71.23-20.67 71.23-21.18L71.23-21.18L71.23-21.18Q71.23-21.50 70.98-21.50L70.98-21.50L70.08-21.12L70.08-21.12Q67.07-19.01 62.98-14.56L62.98-14.56L62.98-14.56Q58.88-10.11 56.32-6.78L56.32-6.78L53.70-3.39L53.70-3.39Q50.69 0.77 47.94 0.77L47.94 0.77L47.94 0.77Q47.10 0.77 47.10 0.32L47.10 0.32L47.10 0.32Q47.10-0.26 48.32-2.72L48.32-2.72L48.32-2.72Q49.54-5.18 50.75-7.36L50.75-7.36L51.97-9.54L58.18-20.54L58.18-20.54Q59.71-23.42 61.89-25.70L61.89-25.70L61.89-25.70Q64.06-27.97 66.43-27.97L66.43-27.97L66.43-27.97Q66.94-27.97 66.94-27.52L66.94-27.52L66.94-27.52Q66.94-27.14 66.21-25.89L66.21-25.89L66.21-25.89Q65.47-24.64 64.10-22.43L64.10-22.43L64.10-22.43Q62.72-20.22 61.76-18.37L61.76-18.37L61.76-18.37Q61.18-17.28 60.38-15.90L60.38-15.90L60.38-15.90Q59.58-14.53 59.07-13.60L59.07-13.60L59.07-13.60Q58.56-12.67 58.37-12.29L58.37-12.29L58.37-12.29Q58.18-11.90 58.18-11.71L58.18-11.71L58.18-11.71Q58.18-11.58 58.30-11.58L58.30-11.58L58.30-11.58Q58.50-11.58 58.94-12.03L58.94-12.03L58.94-12.03Q60.16-13.44 62.11-15.55L62.11-15.55L62.11-15.55Q64.06-17.66 68.74-21.92L68.74-21.92L68.74-21.92Q73.41-26.18 76.42-27.65L76.42-27.65L76.42-27.65Q77.06-27.97 77.70-27.97L77.70-27.97L77.70-27.97Q78.59-27.97 78.59-27.07L78.59-27.07L78.59-27.07Q78.59-25.41 74.82-18.43L74.82-18.43L74.82-18.43Q74.50-17.86 73.50-16.19L73.50-16.19L73.50-16.19Q72.51-14.53 71.84-13.31L71.84-13.31L71.84-13.31Q71.17-12.10 71.17-11.78L71.17-11.78L71.17-11.78Q71.17-11.58 71.30-11.58L71.30-11.58L71.30-11.58Q71.49-11.58 71.94-12.03L71.94-12.03L71.94-12.03Q73.15-13.44 75.10-15.55L75.10-15.55L75.10-15.55Q77.06-17.66 81.70-21.92L81.70-21.92L81.70-21.92Q86.34-26.18 89.34-27.65L89.34-27.65L89.34-27.65Q90.11-27.97 90.69-27.97L90.69-27.97L90.69-27.97Q91.65-27.97 91.65-27.07L91.65-27.07L91.65-27.07Q91.65-26.82 91.39-25.95L91.39-25.95L91.39-25.95Q91.14-25.09 89.92-22.43L89.92-22.43L89.92-22.43Q88.70-19.78 86.72-16.58L86.72-16.58L86.72-16.58Q81.86-9.09 81.86-7.17L81.86-7.17L81.86-7.17Q81.86-6.59 82.24-6.59L82.24-6.59L82.24-6.59Q83.33-6.59 86.40-9.66ZM92.42-6.91L89.79-2.30L89.79-2.30Q89.47-1.73 89.47-1.15L89.47-1.15L89.47-1.15Q89.47 0 91.26 0L91.26 0L91.26 0Q93.12 0 95.17-1.70L95.17-1.70L95.17-1.70Q97.22-3.39 98.85-5.79L98.85-5.79L98.85-5.79Q100.48-8.19 101.86-10.59L101.86-10.59L101.86-10.59Q103.23-12.99 103.94-14.72L103.94-14.72L104.70-16.38L104.70-16.38Q106.37-20.54 106.37-22.46L106.37-22.46L106.37-22.46Q106.37-23.81 105.41-23.81L105.41-23.81L105.41-23.81Q104.83-23.81 104.26-23.42L104.26-23.42L104.26-23.42Q102.21-22.14 98.59-16.86L98.59-16.86L98.59-16.86Q94.98-11.58 92.42-6.91L92.42-6.91ZM103.42-31.87L103.42-31.87L103.42-31.87Q103.87-31.87 103.87-31.36L103.87-31.36L103.87-31.36Q103.87-30.46 102.82-27.90L102.82-27.90L102.82-27.90Q101.76-25.34 100.74-23.30L100.74-23.30L99.65-21.18L99.65-21.18Q99.58-21.06 99.58-20.93L99.58-20.93L99.58-20.93Q99.58-20.74 99.71-20.74L99.71-20.74L99.71-20.74Q99.84-20.74 100.10-20.99L100.10-20.99L100.10-20.99Q100.29-21.31 100.67-21.76L100.67-21.76L100.67-21.76Q101.06-22.21 102.21-23.46L102.21-23.46L102.21-23.46Q103.36-24.70 104.42-25.63L104.42-25.63L104.42-25.63Q105.47-26.56 106.85-27.33L106.85-27.33L106.85-27.33Q108.22-28.10 109.31-28.10L109.31-28.10L109.31-28.10Q111.81-28.10 111.81-24L111.81-24L111.81-24Q111.81-20.67 109.82-15.81L109.82-15.81L109.82-15.81Q109.82-15.68 109.09-14.02L109.09-14.02L109.09-14.02Q108.35-12.35 106.75-9.73L106.75-9.73L106.75-9.73Q105.15-7.10 103.10-4.64L103.10-4.64L103.10-4.64Q101.06-2.18 98.02-0.38L98.02-0.38L98.02-0.38Q94.98 1.41 91.78 1.41L91.78 1.41L91.78 1.41Q90.88 1.41 90.11 1.18L90.11 1.18L90.11 1.18Q89.34 0.96 88.96 0.74L88.96 0.74L88.96 0.74Q88.58 0.51 88.45 0.51L88.45 0.51L88 0.77L88 0.77Q86.27 3.33 82.50 10.24L82.50 10.24L82.50 10.24Q78.72 17.15 76.48 21.82L76.48 21.82L76.48 21.82Q76.16 22.40 75.65 23.36L75.65 23.36L75.65 23.36Q75.14 24.32 73.66 26.82L73.66 26.82L73.66 26.82Q72.19 29.31 70.88 31.20L70.88 31.20L70.88 31.20Q69.57 33.09 68 34.66L68 34.66L68 34.66Q66.43 36.22 65.34 36.22L65.34 36.22L65.34 36.22Q64.70 36.22 64.70 35.65L64.70 35.65L64.70 35.65Q64.70 33.92 68.45 26.78L68.45 26.78L68.45 26.78Q72.19 19.65 75.97 13.31L75.97 13.31L79.74 7.04L79.74 7.04Q89.02-9.15 94.21-18.69L94.21-18.69L94.21-18.69Q94.34-18.94 94.59-19.42L94.59-19.42L94.59-19.42Q94.85-19.90 95.62-21.28L95.62-21.28L95.62-21.28Q96.38-22.66 97.09-23.90L97.09-23.90L97.09-23.90Q97.79-25.15 98.75-26.66L98.75-26.66L98.75-26.66Q99.71-28.16 100.54-29.28L100.54-29.28L100.54-29.28Q101.38-30.40 102.14-31.14L102.14-31.14L102.14-31.14Q102.91-31.87 103.42-31.87ZM127.49-4.03L127.49-4.03L127.49-4.03Q122.18 0.83 120.19 0.83L120.19 0.83L120.19 0.83Q119.30 0.83 119.30-0.19L119.30-0.19L119.30-0.19Q119.30-1.47 120.42-4.10L120.42-4.10L120.42-4.10Q121.54-6.72 122.69-8.70L122.69-8.70L123.84-10.69L123.84-10.69Q124.10-11.14 124.10-11.26L124.10-11.26L124.10-11.26Q124.10-11.39 123.97-11.39L123.97-11.39L123.97-11.39Q123.71-11.39 123.01-10.69L123.01-10.69L123.01-10.69Q121.09-8.58 118.62-6.18L118.62-6.18L118.62-6.18Q116.16-3.78 114.62-2.43L114.62-2.43L113.15-1.15L113.15-1.15Q110.66 0.77 109.31 0.77L109.31 0.77L109.31 0.77Q107.90 0.77 107.90-1.41L107.90-1.41L107.90-1.41Q107.90-2.50 108.51-4.74L108.51-4.74L108.51-4.74Q109.12-6.98 109.44-7.74L109.44-7.74L109.44-7.74Q110.91-11.33 113.12-14.72L113.12-14.72L113.12-14.72Q115.33-18.11 118.34-21.22L118.34-21.22L118.34-21.22Q121.34-24.32 125.34-26.24L125.34-26.24L125.34-26.24Q129.34-28.16 133.63-28.16L133.63-28.16L133.63-28.16Q137.22-28.16 137.22-27.07L137.22-27.07L137.22-27.07Q137.22-26.43 135.62-26.43L135.62-26.43L135.62-26.43Q129.73-26.43 124.58-21.41L124.58-21.41L124.58-21.41Q119.42-16.38 116.22-9.86L116.22-9.86L116.22-9.86Q115.33-8.06 115.33-6.85L115.33-6.85L115.33-6.85Q115.33-6.14 115.78-6.14L115.78-6.14L115.78-6.14Q116.54-6.14 117.76-7.23L117.76-7.23L117.76-7.23Q118.53-7.94 119.84-9.09L119.84-9.09L119.84-9.09Q121.15-10.24 124.10-13.50L124.10-13.50L124.10-13.50Q127.04-16.77 128.77-19.58L128.77-19.58L128.77-19.58Q129.02-20.10 129.57-20.80L129.57-20.80L129.57-20.80Q130.11-21.50 131.65-22.69L131.65-22.69L131.65-22.69Q133.18-23.87 134.72-23.87L134.72-23.87L134.72-23.87Q135.55-23.87 135.55-23.42L135.55-23.42L135.55-23.42Q135.55-23.30 135.36-22.98L135.36-22.98L135.36-22.98Q135.10-22.46 133.92-20.42L133.92-20.42L133.92-20.42Q132.74-18.37 131.71-16.54L131.71-16.54L131.71-16.54Q130.69-14.72 129.54-12.58L129.54-12.58L129.54-12.58Q128.38-10.43 127.71-8.90L127.71-8.90L127.71-8.90Q127.04-7.36 127.04-6.85L127.04-6.85L127.04-6.85Q127.04-6.46 127.36-6.46L127.36-6.46L127.36-6.46Q128.32-6.46 132.03-10.18L132.03-10.18L132.03-10.18Q134.85-13.12 138.62-17.41L138.62-17.41L138.62-17.41Q138.82-17.60 138.94-17.60L138.94-17.60L138.94-17.60Q139.07-17.60 139.07-17.34L139.07-17.34L139.07-17.34Q139.07-16.13 138.11-14.98L138.11-14.98L138.11-14.98Q131.84-8 127.49-4.03ZM153.98-6.21L153.98-6.21L153.98-6.21Q146.50 0.83 144.13 0.83L144.13 0.83L144.13 0.83Q143.04 0.83 143.04-0.32L143.04-0.32L143.04-0.32Q143.04-1.02 143.36-2.08L143.36-2.08L143.36-2.08Q143.68-3.14 144.16-4.19L144.16-4.19L144.16-4.19Q144.64-5.25 145.09-6.14L145.09-6.14L145.09-6.14Q145.54-7.04 145.98-7.81L145.98-7.81L145.98-7.81Q146.43-8.58 146.43-8.64L146.43-8.64L146.43-8.64Q147.39-10.37 149.31-13.47L149.31-13.47L149.31-13.47Q151.23-16.58 152.38-18.59L152.38-18.59L152.38-18.59Q153.54-20.61 153.54-21.06L153.54-21.06L153.54-21.06Q153.54-21.38 153.22-21.38L153.22-21.38L152.32-21.06L152.32-21.06Q149.38-18.94 145.28-14.50L145.28-14.50L145.28-14.50Q141.18-10.05 138.56-6.66L138.56-6.66L135.94-3.33L135.94-3.33Q135.10-2.11 134.46-1.34L134.46-1.34L134.46-1.34Q133.82-0.58 132.64 0.16L132.64 0.16L132.64 0.16Q131.46 0.90 130.24 0.90L130.24 0.90L130.24 0.90Q129.34 0.90 129.34 0.38L129.34 0.38L129.34 0.38Q129.34-0.13 130.56-2.59L130.56-2.59L130.56-2.59Q131.78-5.06 132.99-7.30L132.99-7.30L134.21-9.47L140.48-20.48L140.48-20.48Q141.44-22.08 142.05-22.94L142.05-22.94L142.05-22.94Q142.66-23.81 143.74-25.12L143.74-25.12L143.74-25.12Q144.83-26.43 146.08-27.07L146.08-27.07L146.08-27.07Q147.33-27.71 148.74-27.84L148.74-27.84L148.74-27.84Q149.25-27.84 149.25-27.39L149.25-27.39L149.25-27.39Q149.25-27.01 149.06-26.75L149.06-26.75L149.06-26.75Q147.58-24.45 144.54-19.14L144.54-19.14L144.54-19.14Q141.50-13.82 140.67-12.22L140.67-12.22L140.67-12.22Q140.48-11.84 140.48-11.65L140.48-11.65L140.48-11.65Q140.48-11.52 140.61-11.52L140.61-11.52L140.61-11.52Q140.74-11.52 141.25-11.90L141.25-11.90L141.25-11.90Q142.46-13.31 144.42-15.42L144.42-15.42L144.42-15.42Q146.37-17.54 151.04-21.79L151.04-21.79L151.04-21.79Q155.71-26.05 158.72-27.52L158.72-27.52L158.72-27.52Q159.42-27.84 160.06-27.84L160.06-27.84L160.06-27.84Q160.96-27.84 160.96-26.82L160.96-26.82L160.96-26.82Q160.45-23.81 156.03-16.51L156.03-16.51L156.03-16.51Q151.17-8.51 151.17-7.04L151.17-7.04L151.17-7.04Q151.17-6.53 151.62-6.53L151.62-6.53L151.62-6.53Q151.94-6.53 152.35-6.75L152.35-6.75L152.35-6.75Q152.77-6.98 153.28-7.39L153.28-7.39L153.28-7.39Q153.79-7.81 154.14-8.13L154.14-8.13L154.14-8.13Q154.50-8.45 155.07-8.99L155.07-8.99L155.07-8.99Q155.65-9.54 155.78-9.66L155.78-9.66L155.78-9.66Q158.46-12.35 162.88-17.41L162.88-17.41L162.88-17.41Q163.07-17.60 163.20-17.60L163.20-17.60L163.20-17.60Q163.33-17.60 163.33-17.34L163.33-17.34L163.33-17.34Q163.33-16.13 162.37-14.98L162.37-14.98L162.37-14.98Q157.63-9.73 153.98-6.21ZM170.56-9.09L170.56-9.09L173.25-14.34L173.25-14.34Q173.25-14.53 173.12-14.53L173.12-14.53L173.12-14.53Q172.99-14.53 172.80-14.34L172.80-14.34L172.80-14.34Q170.43-11.58 167.81-8.93L167.81-8.93L167.81-8.93Q165.18-6.27 163.78-4.99L163.78-4.99L162.37-3.71L162.37-3.71Q157.57 0.83 155.58 0.83L155.58 0.83L155.58 0.83Q154.69 0.83 154.69-0.32L154.69-0.32L154.69-0.32Q154.69-1.60 155.71-4.19L155.71-4.19L155.71-4.19Q156.74-6.78 157.76-8.70L157.76-8.70L158.78-10.69L158.78-10.69Q164.16-20.74 166.72-24.13L166.72-24.13L166.72-24.13Q168-25.79 169.86-26.91L169.86-26.91L169.86-26.91Q171.71-28.03 172.74-28.03L172.74-28.03L172.74-28.03Q173.38-28.03 173.38-27.58L173.38-27.58L173.38-27.58Q173.38-27.33 173.12-26.88L173.12-26.88L173.12-26.88Q172.99-26.62 170.50-22.62L170.50-22.62L170.50-22.62Q168-18.62 166.46-15.74L166.46-15.74L166.46-15.74Q162.24-8 162.24-6.85L162.24-6.85L162.24-6.85Q162.24-6.40 162.62-6.40L162.62-6.40L162.62-6.40Q163.20-6.40 164.61-7.55L164.61-7.55L164.61-7.55Q168.77-11.14 173.76-17.22L173.76-17.22L173.76-17.22Q176.51-20.16 179.52-24.90L179.52-24.90L179.52-24.90Q180.35-26.18 181.98-27.10L181.98-27.10L181.98-27.10Q183.62-28.03 184.96-28.03L184.96-28.03L184.96-28.03Q185.54-28.03 185.54-27.52L185.54-27.52L185.02-26.30L185.02-26.30Q184.13-24.70 181.02-19.30L181.02-19.30L181.02-19.30Q177.92-13.89 177.54-13.18L177.54-13.18L177.54-13.18Q177.02-12.22 175.20-9.06L175.20-9.06L175.20-9.06Q173.38-5.89 172.61-4.54L172.61-4.54L172.61-4.54Q176.64-7.81 179.26-10.18L179.26-10.18L179.26-10.18Q182.08-13.12 185.86-17.41L185.86-17.41L185.86-17.41Q186.05-17.60 186.18-17.60L186.18-17.60L186.18-17.60Q186.30-17.60 186.30-17.34L186.30-17.34L186.30-17.34Q186.30-16.13 185.34-14.98L185.34-14.98L185.34-14.98Q182.53-11.90 180.48-9.73L180.48-9.73L180.48-9.73Q177.79-6.91 170.88-1.54L170.88-1.54L169.22 1.54L169.22 1.54Q156.86 24.26 152.19 31.10L152.19 31.10L152.19 31.10Q151.74 31.81 151.04 32.80L151.04 32.80L151.04 32.80Q150.34 33.79 148.74 35.49L148.74 35.49L148.74 35.49Q147.14 37.18 146.18 37.18L146.18 37.18L146.18 37.18Q144.64 37.18 144.64 32.77L144.64 32.77L144.64 32.77Q144.64 26.24 149.31 18.56L149.31 18.56L149.31 18.56Q154.37 10.30 164.93 1.60L164.93 1.60L164.93 1.60Q167.04-2.24 170.56-9.09ZM150.91 18.43L150.91 18.43L150.91 18.43Q150.40 19.20 149.70 20.45L149.70 20.45L149.70 20.45Q148.99 21.70 147.78 24.74L147.78 24.74L147.78 24.74Q146.56 27.78 146.56 29.82L146.56 29.82L146.56 29.82Q146.56 30.91 146.94 30.91L146.94 30.91L146.94 30.91Q147.26 30.91 147.90 30.30L147.90 30.30L147.90 30.30Q148.54 29.70 148.99 29.06L148.99 29.06L149.44 28.42L149.44 28.42Q155.78 18.50 163.20 4.74L163.20 4.74L163.20 4.74Q154.88 12.03 150.91 18.43ZM206.91-20.67L206.91-20.67L206.91-20.67Q206.46-19.84 201.54-9.86L201.54-9.86L201.54-9.86Q198.27-3.20 194.98 0.22L194.98 0.22L194.98 0.22Q191.68 3.65 189.95 3.65L189.95 3.65L189.95 3.65Q189.18 3.65 189.18 2.94L189.18 2.94L189.38 2.18L189.38 2.18Q190.08 0.26 193.76-6.85L193.76-6.85L193.76-6.85Q197.44-13.95 200.64-19.46L200.64-19.46L200.64-19.46Q203.65-24.70 206.53-29.60L206.53-29.60L206.53-29.60Q209.41-34.50 210.82-36.80L210.82-36.80L212.22-39.10L212.22-39.10Q212.35-39.30 212.54-39.62L212.54-39.62L212.54-39.62Q212.74-39.94 213.41-40.77L213.41-40.77L213.41-40.77Q214.08-41.60 214.78-42.21L214.78-42.21L214.78-42.21Q215.49-42.82 216.45-43.33L216.45-43.33L216.45-43.33Q217.41-43.84 218.30-43.84L218.30-43.84L218.30-43.84Q219.14-43.84 219.14-43.39L219.14-43.39L219.14-43.39Q219.14-42.82 218.37-41.73L218.37-41.73L218.37-41.73Q213.57-33.54 208.13-23.10L208.13-23.10L208.13-23.10Q208.06-22.98 208.06-22.85L208.06-22.85L208.06-22.85Q208.06-22.66 208.32-22.66L208.32-22.66L208.32-22.66Q212.35-22.66 215.78-24.19L215.78-24.19L215.78-24.19Q219.20-25.73 221.34-28.19L221.34-28.19L221.34-28.19Q223.49-30.66 224.67-33.47L224.67-33.47L224.67-33.47Q225.86-36.29 225.86-39.04L225.86-39.04L225.86-39.04Q225.86-42.94 222.91-44.93L222.91-44.93L222.91-44.93Q219.97-46.91 216.00-46.91L216.00-46.91L216.00-46.91Q212.99-46.91 210.14-46.02L210.14-46.02L210.14-46.02Q207.30-45.12 205.15-42.94L205.15-42.94L205.15-42.94Q203.01-40.77 203.01-37.76L203.01-37.76L203.01-37.76Q203.01-35.97 203.97-34.30L203.97-34.30L203.97-34.30Q204.29-33.66 204.29-33.41L204.29-33.41L204.29-33.41Q204.29-33.02 203.78-33.02L203.78-33.02L203.78-33.02Q203.65-33.02 203.26-33.15L203.26-33.15L203.26-33.15Q203.07-33.22 202.75-33.41L202.75-33.41L202.75-33.41Q202.43-33.60 201.60-34.18L201.60-34.18L201.60-34.18Q200.77-34.75 200.13-35.39L200.13-35.39L200.13-35.39Q199.49-36.03 198.98-37.09L198.98-37.09L198.98-37.09Q198.46-38.14 198.46-39.23L198.46-39.23L198.46-39.23Q198.46-43.20 203.36-45.89L203.36-45.89L203.36-45.89Q208.26-48.58 214.46-48.58L214.46-48.58L214.46-48.58Q217.47-48.58 220.19-48.06L220.19-48.06L220.19-48.06Q222.91-47.55 225.50-46.43L225.50-46.43L225.50-46.43Q228.10-45.31 229.63-43.20L229.63-43.20L229.63-43.20Q231.17-41.09 231.17-38.21L231.17-38.21L231.17-38.21Q231.17-33.92 228.96-30.50L228.96-30.50L228.96-30.50Q226.75-27.07 223.20-25.06L223.20-25.06L223.20-25.06Q219.65-23.04 215.62-21.98L215.62-21.98L215.62-21.98Q211.58-20.93 207.49-20.93L207.49-20.93L207.49-20.93Q207.42-20.99 207.30-20.99L207.30-20.99L207.30-20.99Q207.04-20.99 206.91-20.67ZM232.51-13.25L232.51-13.25L232.51-13.25Q232.00-13.25 232.00-13.63L232.00-13.63L232.00-13.63Q232.00-13.82 232.19-14.14L232.19-14.14L232.19-14.14Q235.97-20.03 235.97-22.21L235.97-22.21L235.97-22.21Q235.97-22.78 235.52-22.78L235.52-22.78L235.52-22.78Q233.60-22.78 226.50-14.08L226.50-14.08L226.50-14.08Q224.38-11.39 222.56-8.51L222.56-8.51L222.56-8.51Q220.74-5.63 220.03-4.10L220.03-4.10L219.26-2.62L219.26-2.62Q218.50-1.09 216.90 0.22L216.90 0.22L216.90 0.22Q215.30 1.54 213.57 1.54L213.57 1.54L213.57 1.54Q212.67 1.54 212.67 1.09L212.67 1.09L212.67 1.09Q212.67 0.70 213.22-0.51L213.22-0.51L213.22-0.51Q213.76-1.73 214.53-3.20L214.53-3.20L214.53-3.20Q215.30-4.67 216.06-6.08L216.06-6.08L216.06-6.08Q216.83-7.49 217.34-8.45L217.34-8.45L217.92-9.41L224.64-21.12L224.64-21.12Q228.54-28.48 232.83-28.48L232.83-28.48L232.83-28.48Q233.41-28.48 233.41-28.03L233.41-28.03L233.41-28.03Q233.41-27.46 230.62-23.26L230.62-23.26L230.62-23.26Q227.84-19.07 227.39-17.92L227.39-17.92L227.39-17.92Q227.26-17.54 227.26-17.47L227.26-17.47L227.26-17.47Q227.26-17.34 227.39-17.34L227.39-17.34L227.39-17.34Q227.52-17.34 227.84-17.66L227.84-17.66L227.84-17.66Q232.64-23.10 238.02-27.33L238.02-27.33L238.02-27.33Q238.34-27.65 239.42-28.26L239.42-28.26L239.42-28.26Q240.51-28.86 241.34-28.86L241.34-28.86L241.34-28.86Q242.56-28.86 242.56-26.75L242.56-26.75L242.56-26.75Q242.56-24.45 241.02-21.25L241.02-21.25L241.02-21.25Q239.49-18.05 236.86-15.62L236.86-15.62L236.61-15.36L236.61-15.36Q236.35-15.17 236.06-14.94L236.06-14.94L236.06-14.94Q235.78-14.72 235.33-14.40L235.33-14.40L235.33-14.40Q234.88-14.08 234.43-13.86L234.43-13.86L234.43-13.86Q233.98-13.63 233.47-13.44L233.47-13.44L233.47-13.44Q232.96-13.25 232.51-13.25ZM263.10-22.53L263.10-22.53L263.10-22.53Q263.68-22.40 263.68-22.14L263.68-22.14L263.68-22.14Q263.68-21.76 263.17-21.25L263.17-21.25L263.17-21.25Q262.46-20.54 261.09-19.39L261.09-19.39L261.09-19.39Q259.71-18.24 259.46-17.98L259.46-17.98L258.56-16.77L258.56-16.77Q257.22-12.99 254.43-8.93L254.43-8.93L254.43-8.93Q251.65-4.86 247.65-1.79L247.65-1.79L247.65-1.79Q243.65 1.28 240.00 1.28L240.00 1.28L240.00 1.28Q235.46 1.28 235.46-4.29L235.46-4.29L235.46-4.29Q235.46-9.22 238.66-14.94L238.66-14.94L238.66-14.94Q241.86-20.67 246.94-24.74L246.94-24.74L246.94-24.74Q252.03-28.80 256.96-28.80L256.96-28.80L256.96-28.80Q260.54-28.80 260.54-25.98L260.54-25.98L260.54-25.98Q260.54-24.45 259.01-21.82L259.01-21.82L259.01-21.82Q258.94-21.76 258.94-21.63L258.94-21.63L258.94-21.63Q258.94-21.50 259.07-21.50L259.07-21.50L259.07-21.50Q261.44-22.46 263.10-22.53ZM257.02-20.99L257.02-20.99L257.02-20.99Q257.54-23.23 257.54-24.45L257.54-24.45L257.54-24.45Q257.54-27.14 255.74-27.14L255.74-27.14L255.74-27.14Q253.25-27.14 249.54-22.53L249.54-22.53L249.54-22.53Q245.82-17.92 243.17-12.16L243.17-12.16L243.17-12.16Q240.51-6.40 240.51-3.07L240.51-3.07L240.51-3.07Q240.51-0.64 242.24-0.64L242.24-0.64L242.24-0.64Q244.93-0.64 248.67-6.02L248.67-6.02L248.67-6.02Q252.42-11.39 253.18-16.83L253.18-16.83L253.18-16.83Q253.12-16.96 253.12-17.22L253.12-17.22L253.12-17.22Q253.12-19.07 256.45-20.54L256.45-20.54L256.45-20.54Q256.96-20.74 257.02-20.99ZM268.16-25.86L266.62-26.24L266.62-26.24Q266.24-26.43 266.24-26.69L266.24-26.69L266.24-26.69Q266.24-27.07 266.94-27.07L266.94-27.07L268.86-27.07L268.86-27.07Q275.52-37.82 279.74-42.82L279.74-42.82L279.74-42.82Q284.16-47.94 288.51-50.46L288.51-50.46L288.51-50.46Q292.86-52.99 295.23-52.99L295.23-52.99L295.23-52.99Q296.77-52.99 296.77-51.65L296.77-51.65L296.77-51.65Q296.77-48.70 293.73-45.66L293.73-45.66L293.73-45.66Q290.69-42.62 288.58-41.73L288.58-41.73L288.58-41.73Q288.19-41.60 288.06-41.60L288.06-41.60L288.06-41.60Q287.81-41.60 287.81-41.92L287.81-41.92L287.81-41.92Q287.81-42.11 288-42.43L288-42.43L288-42.43Q291.71-47.87 291.71-49.66L291.71-49.66L291.71-49.66Q291.71-50.11 291.33-50.11L291.33-50.11L291.33-50.11Q290.56-50.11 288.77-48.70L288.77-48.70L288.77-48.70Q284.42-45.44 273.54-27.07L273.54-27.07L278.46-27.07L278.46-27.07Q279.36-27.07 279.36-26.82L279.36-26.82L279.36-26.82Q279.36-26.50 278.88-26.11L278.88-26.11L278.88-26.11Q278.40-25.73 278.14-25.73L278.14-25.73L273.60-25.73L273.60-25.73Q272.70-25.73 272.70-25.28L272.70-25.28L272.70-25.28Q272.70-25.09 272.80-24.19L272.80-24.19L272.80-24.19Q272.90-23.30 272.90-22.78L272.90-22.78L272.90-22.78Q272.90-16.83 269.28-8.48L269.28-8.48L269.28-8.48Q265.66-0.13 259.90 7.55L259.90 7.55L259.90 7.55Q256.58 11.97 253.76 14.85L253.76 14.85L253.76 14.85Q250.94 17.73 249.50 18.66L249.50 18.66L249.50 18.66Q248.06 19.58 247.36 19.58L247.36 19.58L247.36 19.58Q246.46 19.58 246.46 18.37L246.46 18.37L246.46 18.37Q246.46 12.48 258.69-9.09L258.69-9.09L258.69-9.09Q258.69-9.15 259.90-11.39L259.90-11.39L259.90-11.39Q261.12-13.63 263.46-17.82L263.46-17.82L263.46-17.82Q265.79-22.02 268.16-25.86L268.16-25.86ZM271.17-20.99L271.17-20.99L271.17-20.99Q271.17-21.89 270.98-22.66L270.98-22.66L270.98-22.66Q260.86-5.25 256.90 3.14L256.90 3.14L256.90 3.14Q253.25 10.69 253.25 11.97L253.25 11.97L253.25 11.97Q253.25 12.22 253.44 12.22L253.44 12.22L253.44 12.22Q254.34 12.22 257.86 8.06L257.86 8.06L257.86 8.06Q261.57 3.71 266.37-5.70L266.37-5.70L266.37-5.70Q271.17-15.10 271.17-20.99ZM281.28-6.21L281.28-6.21L281.28-6.21Q273.79 0.83 271.68 0.83L271.68 0.83L271.68 0.83Q270.59 0.83 270.59-0.64L270.59-0.64L270.59-0.64Q270.59-2.11 271.74-4.93L271.74-4.93L271.74-4.93Q272.90-7.74 274.05-9.86L274.05-9.86L275.20-11.90L275.20-11.90Q280.06-20.42 282.56-24.13L282.56-24.13L282.56-24.13Q283.65-25.73 285.34-26.85L285.34-26.85L285.34-26.85Q287.04-27.97 288.51-27.97L288.51-27.97L288.51-27.97Q289.02-27.97 289.02-27.52L289.02-27.52L289.02-27.52Q289.02-27.20 288.58-26.30L288.58-26.30L288.58-26.30Q287.81-24.90 284.80-19.58L284.80-19.58L284.80-19.58Q281.79-14.27 281.22-13.18L281.22-13.18L281.22-13.18Q278.59-8.58 278.59-7.04L278.59-7.04L278.59-7.04Q278.59-6.46 278.98-6.46L278.98-6.46L278.98-6.46Q279.62-6.46 283.07-9.66L283.07-9.66L283.07-9.66Q285.76-12.35 290.18-17.41L290.18-17.41L290.18-17.41Q290.37-17.60 290.50-17.60L290.50-17.60L290.50-17.60Q290.62-17.60 290.62-17.34L290.62-17.34L290.62-17.34Q290.62-16.13 289.66-14.98L289.66-14.98L289.66-14.98Q284.93-9.73 281.28-6.21ZM289.79-31.62L289.79-31.62L289.79-31.62Q288.19-31.62 288.19-33.54L288.19-33.54L288.19-33.54Q288.19-35.33 289.54-37.15L289.54-37.15L289.54-37.15Q290.88-38.98 292.48-38.98L292.48-38.98L292.48-38.98Q294.40-38.98 294.40-36.80L294.40-36.80L294.40-36.80Q294.40-35.01 292.93-33.31L292.93-33.31L292.93-33.31Q291.46-31.62 289.79-31.62ZM302.72-31.17L302.72-31.17L302.72-31.17Q307.26-34.37 310.88-38.43L310.88-38.43L310.88-38.43Q314.50-42.50 316.38-45.92L316.38-45.92L316.38-45.92Q318.27-49.34 319.23-51.84L319.23-51.84L319.23-51.84Q320.19-54.34 320.19-55.42L320.19-55.42L320.19-55.42Q320.19-56.06 319.74-56.06L319.74-56.06L319.74-56.06Q318.85-56.06 317.57-54.78L317.57-54.78L317.57-54.78Q315.14-52.35 312.06-47.74L312.06-47.74L312.06-47.74Q308.99-43.14 307.10-39.84L307.10-39.84L307.10-39.84Q305.22-36.54 302.21-31.04L302.21-31.04L302.21-31.04Q302.46-31.04 302.72-31.17ZM295.87-9.66L295.87-9.66L295.87-9.66Q298.56-12.35 302.98-17.41L302.98-17.41L302.98-17.41Q303.17-17.60 303.30-17.60L303.30-17.60L303.30-17.60Q303.42-17.60 303.42-17.34L303.42-17.34L303.42-17.34Q303.42-16.13 302.46-14.98L302.46-14.98L302.46-14.98Q297.73-9.73 294.08-6.21L294.08-6.21L294.08-6.21Q286.08 1.34 283.90 1.34L283.90 1.34L283.90 1.34Q282.94 1.34 282.94 0L282.94 0L282.94 0Q282.94-0.70 283.10-1.54L283.10-1.54L283.10-1.54Q283.26-2.37 283.65-3.36L283.65-3.36L283.65-3.36Q284.03-4.35 284.32-5.02L284.32-5.02L284.32-5.02Q284.61-5.70 285.15-6.94L285.15-6.94L285.15-6.94Q285.70-8.19 285.89-8.64L285.89-8.64L285.89-8.64Q287.68-12.67 296.90-29.89L296.90-29.89L296.90-29.89Q309.50-52.86 320.06-58.11L320.06-58.11L320.06-58.11Q321.60-58.88 323.14-58.88L323.14-58.88L323.14-58.88Q324.93-58.88 324.93-57.22L324.93-57.22L324.93-57.22Q324.93-53.38 322.30-48.80L322.30-48.80L322.30-48.80Q319.68-44.22 315.90-40.38L315.90-40.38L315.90-40.38Q312.13-36.54 308.51-33.66L308.51-33.66L308.51-33.66Q304.90-30.78 302.27-29.31L302.27-29.31L302.27-29.31Q301.89-29.18 301.57-28.74L301.57-28.74L301.57-28.74Q298.75-24.19 296.06-18.98L296.06-18.98L296.06-18.98Q293.38-13.76 292.03-10.75L292.03-10.75L290.75-7.81L290.75-7.81Q290.43-6.85 290.43-6.53L290.43-6.53L290.43-6.53Q290.43-5.95 290.88-5.95L290.88-5.95L290.88-5.95Q292.16-5.95 295.87-9.66ZM314.50-21.70L314.50-21.70L314.50-21.70Q315.26-23.30 315.26-24.51L315.26-24.51L315.26-24.51Q315.26-25.54 314.62-25.54L314.62-25.54L314.62-25.54Q314.24-25.54 313.76-25.31L313.76-25.31L313.76-25.31Q313.28-25.09 313.02-24.83L313.02-24.83L312.70-24.58L312.70-24.58Q310.72-22.85 307.74-18.27L307.74-18.27L307.74-18.27Q304.77-13.70 304.77-12.42L304.77-12.42L304.77-12.42Q304.77-12.16 304.90-12.16L304.90-12.16L304.90-12.16Q305.28-12.16 306.59-12.80L306.59-12.80L306.59-12.80Q307.90-13.44 310.37-15.81L310.37-15.81L310.37-15.81Q312.83-18.18 314.50-21.70ZM311.62-7.04L311.62-7.04L311.62-7.04Q315.01-10.18 321.34-17.41L321.34-17.41L321.34-17.41Q321.54-17.60 321.66-17.60L321.66-17.60L321.66-17.60Q321.79-17.60 321.79-17.34L321.79-17.34L321.79-17.34Q321.79-16.13 320.83-14.98L320.83-14.98L320.83-14.98Q316.10-9.73 312.45-6.21L312.45-6.21L312.45-6.21Q309.76-3.52 306.05-1.06L306.05-1.06L306.05-1.06Q302.34 1.41 299.90 1.41L299.90 1.41L299.90 1.41Q296.96 1.41 296.96-2.69L296.96-2.69L296.96-2.69Q296.96-9.47 301.98-16.90L301.98-16.90L301.98-16.90Q307.01-24.32 313.60-26.94L313.60-26.94L313.60-26.94Q316.35-28.10 318.59-28.10L318.59-28.10L318.59-28.10Q321.09-28.10 321.09-26.11L321.09-26.11L321.09-26.11Q321.09-22.40 315.84-17.60L315.84-17.60L315.84-17.60Q310.59-12.80 304.06-10.30L304.06-10.30L304.06-10.30Q303.81-10.24 303.62-9.86L303.62-9.86L303.62-9.86Q302.66-7.23 302.66-5.18L302.66-5.18L302.66-5.18Q302.66-2.88 304.38-2.88L304.38-2.88L304.38-2.88Q307.14-2.88 311.62-7.04Z" fill="#87a5f6"></path></g></g><style>text {
  font-size: 64px;
  font-family: Arial Black;
  dominant-baseline: central;
  text-anchor: middle;
}</style></svg>